<?xml version="1.0" encoding="UTF-8" standalone="no"?>
<!-- Generator: Adobe Illustrator 19.0.0, SVG Export Plug-In . SVG Version: 6.00 Build 0)  -->

<svg
   xmlns:dc="http://purl.org/dc/elements/1.1/"
   xmlns:cc="http://creativecommons.org/ns#"
   xmlns:rdf="http://www.w3.org/1999/02/22-rdf-syntax-ns#"
   xmlns:svg="http://www.w3.org/2000/svg"
   xmlns="http://www.w3.org/2000/svg"
   xmlns:sodipodi="http://sodipodi.sourceforge.net/DTD/sodipodi-0.dtd"
   xmlns:inkscape="http://www.inkscape.org/namespaces/inkscape"
   version="1.1"
   id="Layer_1"
   x="0px"
   y="0px"
   viewBox="0 0 512 512"
   style="enable-background:new 0 0 512 512;"
   xml:space="preserve"
   sodipodi:docname="mars.svg"
   inkscape:version="0.92.3 (2405546, 2018-03-11)"><metadata
   id="metadata41"><rdf:RDF><cc:Work
       rdf:about=""><dc:format>image/svg+xml</dc:format><dc:type
         rdf:resource="http://purl.org/dc/dcmitype/StillImage" /><dc:title></dc:title><cc:license
         rdf:resource="" /></cc:Work></rdf:RDF></metadata><defs
   id="defs39" /><sodipodi:namedview
   pagecolor="#ffffff"
   bordercolor="#666666"
   borderopacity="1"
   objecttolerance="10"
   gridtolerance="10"
   guidetolerance="10"
   inkscape:pageopacity="0"
   inkscape:pageshadow="2"
   inkscape:window-width="640"
   inkscape:window-height="480"
   id="namedview37"
   showgrid="false"
   inkscape:zoom="0.4609375"
   inkscape:cx="256"
   inkscape:cy="256"
   inkscape:window-x="0"
   inkscape:window-y="0"
   inkscape:window-maximized="0"
   inkscape:current-layer="Layer_1" />
<path
   style="fill:#8034AD;"
   d="M480.093,164.996c17.621,0,31.907-14.286,31.907-31.907V32.36v-0.013c0-1.064-0.057-2.114-0.157-3.15  c-0.045-0.457-0.134-0.913-0.2-1.37c-0.081-0.572-0.149-1.151-0.262-1.714c-0.104-0.53-0.253-1.053-0.385-1.578  c-0.123-0.483-0.228-0.972-0.372-1.449c-0.157-0.517-0.353-1.023-0.538-1.536c-0.168-0.47-0.323-0.949-0.515-1.408  c-0.2-0.481-0.436-0.949-0.659-1.421c-0.223-0.47-0.432-0.949-0.676-1.406c-0.247-0.459-0.532-0.904-0.802-1.355  c-0.266-0.44-0.515-0.891-0.802-1.319c-0.345-0.517-0.734-1.013-1.112-1.512c-0.249-0.33-0.479-0.674-0.74-0.991  c-0.666-0.808-1.372-1.593-2.125-2.348c-0.755-0.755-1.544-1.461-2.355-2.127c-0.304-0.249-0.63-0.468-0.942-0.706  c-0.515-0.394-1.03-0.793-1.566-1.151c-0.402-0.27-0.832-0.508-1.251-0.759c-0.474-0.285-0.942-0.585-1.427-0.842  c-0.43-0.23-0.879-0.428-1.323-0.638c-0.498-0.238-0.998-0.489-1.508-0.7c-0.423-0.177-0.864-0.317-1.295-0.476  c-0.549-0.198-1.095-0.408-1.651-0.576c-0.421-0.128-0.855-0.221-1.287-0.33c-0.576-0.149-1.155-0.311-1.74-0.425  c-0.476-0.094-0.964-0.147-1.446-0.221c-0.547-0.083-1.091-0.183-1.64-0.236c-0.8-0.079-1.615-0.104-2.431-0.123  c-0.234-0.004-0.462-0.036-0.698-0.036H379.354c-17.621,0-31.907,14.286-31.907,31.907s14.286,31.907,31.907,31.907h23.713  l-48.073,48.071C317.888,84.403,271.776,67.83,221.865,67.83C99.529,67.83,0,167.359,0,289.695S99.529,511.56,221.867,511.56  c122.336,0,221.863-99.529,221.863-221.865c0-49.458-16.273-95.185-43.738-132.119l48.195-48.197v23.709  C448.186,150.712,462.472,164.996,480.093,164.996z M221.867,447.746c-87.151,0-158.053-70.9-158.053-158.051  s70.902-158.053,158.053-158.053c87.149,0,158.048,70.902,158.048,158.053S309.016,447.746,221.867,447.746z"
   id="path2" />
<path
   style="fill:#5A2479;"
   d="M221.867,511.56c122.336,0,221.863-99.529,221.863-221.865c0-0.6-0.032-1.191-0.036-1.789h-63.823  c0.006,0.598,0.045,1.189,0.045,1.789c0,87.149-70.9,158.051-158.048,158.051c-87.151,0-158.053-70.9-158.053-158.051  c0-0.6,0.038-1.191,0.045-1.789H0.023C0.017,288.504,0,289.097,0,289.695C0,412.033,99.529,511.56,221.867,511.56z"
   id="path4" />
<g
   id="g6">
</g>
<g
   id="g8">
</g>
<g
   id="g10">
</g>
<g
   id="g12">
</g>
<g
   id="g14">
</g>
<g
   id="g16">
</g>
<g
   id="g18">
</g>
<g
   id="g20">
</g>
<g
   id="g22">
</g>
<g
   id="g24">
</g>
<g
   id="g26">
</g>
<g
   id="g28">
</g>
<g
   id="g30">
</g>
<g
   id="g32">
</g>
<g
   id="g34">
</g>
</svg>